# xmcd CD database file
#
# Track frame offsets:
#	150
#	15819
#	45784
#	77118
#	101323
#	144449
#
# Disc length: 2167 seconds
#
# Revision: 0
# Processed by: cddbd v1.5.1PL2 Copyright (c) Steve Scherf et al.
# Submitted via: CDex 1.50
#
DISCID=31087506
DTITLE=CARTER Ron - All Blues
DYEAR=1974
DGENRE=Jazz
TTITLE0=A Feeling
TTITLE1=Light Blue
TTITLE2=117 Special
TTITLE3=Rufus
TTITLE4=All Blues
TTITLE5=Will you still be  mine
EXTD=YEAR: 1974
EXTT0=
EXTT1=
EXTT2=
EXTT3=
EXTT4=
EXTT5=
PLAYORDER=
